<svg width="16" height="16" viewBox="0 0 16 16" fill="none" xmlns="http://www.w3.org/2000/svg">
<g clip-path="url(#clip0_123_25)">
<rect width="16" height="16" rx="4" fill="white"/>
<path d="M3.01956 5.65528L3.2397 5.34255C3.30464 5.25029 3.43299 5.22998 3.52325 5.29767L7.59408 8.35079C7.67412 8.41082 7.78621 8.40247 7.85647 8.33123L15.1254 0.961636C15.251 0.834307 15.4678 0.923236 15.4678 1.10208V1.34751C15.4678 1.39164 15.4532 1.43453 15.4262 1.4695L7.88501 11.2673C7.80725 11.3683 7.65608 11.3718 7.57378 11.2744L3.03036 5.89952C2.97163 5.83004 2.96719 5.72968 3.01956 5.65528Z" fill="#FF0000" stroke="#FF0000"/>
<path fill-rule="evenodd" clip-rule="evenodd" d="M3.50194 0.00857735L12.7792 0.00854492C13.2054 0.00854343 13.8091 0.172534 14.1689 0.383462L13.302 1.19876C13.1555 1.07589 12.9704 1.00854 12.7792 1.00854L3.50194 1.00858C2.12124 1.00858 1.00195 2.12787 1.00195 3.50858V12.4747C1.00195 13.8554 2.12124 14.9747 3.50195 14.9747H12.4678C13.8485 14.9747 14.9678 13.8554 14.9678 12.4747V3.82034C14.9678 3.82034 14.9832 4.08539 14.9678 3.88238L15.8994 2.65609C15.9775 2.96616 15.9678 3.28576 15.9678 3.5782V12.4747C15.9678 14.4076 14.4008 15.9747 12.4678 15.9747H3.50195C1.56896 15.9747 0.00195312 14.4076 0.00195312 12.4747V3.50858C0.00195312 1.57559 1.56895 0.00858408 3.50194 0.00857735Z" fill="black"/>
</g>
<defs>
<clipPath id="clip0_123_25">
<rect width="16" height="16" fill="white"/>
</clipPath>
</defs>
</svg>
