<svg width="559" height="577" viewBox="0 0 559 577" fill="none" xmlns="http://www.w3.org/2000/svg">
<path d="M506.067 265.51C506.067 404.829 393.029 517.771 253.586 517.771C114.144 517.771 1.10495 404.829 1.10495 265.51C1.10495 126.191 114.144 13.2489 253.586 13.2489C393.029 13.2489 506.067 126.191 506.067 265.51Z" stroke="white" stroke-width="2.2099"/>
<ellipse cx="418.776" cy="41.9517" rx="41.9881" ry="41.9517" fill="white"/>
<ellipse cx="77.3465" cy="449.325" rx="41.9881" ry="41.9517" fill="#FE753F"/>
<path d="M248 429.127L112 565.01M248 460.101L174.5 533.537M158.5 576L317 417.637M169 539.532L163.5 545.027" stroke="white" stroke-width="1.5" stroke-linecap="round" stroke-linejoin="round"/>
<path d="M489 58.4493L353 194.331M489 89.4224L415.5 162.859M399.5 205.322L558 46.9592M410 168.853L404.5 174.349" stroke="#FE753F" stroke-width="1.5" stroke-linecap="round" stroke-linejoin="round"/>
<ellipse cx="521.537" cy="319.054" rx="18.7842" ry="18.7679" fill="#058FCB"/>
<ellipse cx="548.055" cy="367.629" rx="9.94455" ry="9.93593" fill="white"/>
<ellipse cx="93.9208" cy="30.9118" rx="9.94455" ry="9.93593" fill="#FE753F"/>
<ellipse cx="35.3584" cy="93.8394" rx="9.94455" ry="9.93593" fill="#058FCB"/>
</svg>
